<svg width="30" height="30" viewBox="0 0 30 30" fill="none" xmlns="http://www.w3.org/2000/svg">
<g clip-path="url(#clip0_91_141)">
<path d="M28.5656 15.7125H27.1406V17.1469H28.5656V21.4312H1.425V17.1469H2.85V15.7125H1.425V11.4281H0V27.1406H1.425V24.2906H28.5656V27.1406H30V11.4281H28.5656V15.7125Z" fill="black"/>
<path d="M27.1406 27.1406H28.5656V28.575H27.1406V27.1406Z" fill="black"/>
<path d="M27.1406 10.0031H28.5656V11.4281H27.1406V10.0031Z" fill="black"/>
<path d="M25.7063 12.8531H27.1407V14.2875H25.7063V12.8531Z" fill="black"/>
<path d="M2.8501 28.575H27.1407V30H2.8501V28.575Z" fill="black"/>
<path d="M22.8562 17.1469H27.1406V18.5719H22.8562V17.1469Z" fill="black"/>
<path d="M21.4219 15.7125H22.8562V17.1469H21.4219V15.7125Z" fill="black"/>
<path d="M19.9968 0H21.4218V1.425H19.9968V0Z" fill="black"/>
<path d="M18.5718 11.4281H19.9968V12.8531H18.5718V11.4281Z" fill="black"/>
<path d="M15.7124 17.1469H21.4218V18.5719H15.7124V17.1469Z" fill="black"/>
<path d="M14.2781 15.7125H15.7125V17.1469H14.2781V15.7125Z" fill="black"/>
<path d="M14.2781 0H15.7125V1.425H14.2781V0Z" fill="black"/>
<path d="M9.99365 11.4281H11.428V12.8531H9.99365V11.4281Z" fill="black"/>
<path d="M8.56885 17.1469H14.2782V18.5719H8.56885V17.1469Z" fill="black"/>
<path d="M8.56885 0H9.99385V1.425H8.56885V0Z" fill="black"/>
<path d="M7.13428 15.7125H8.56865V17.1469H7.13428V15.7125Z" fill="black"/>
<path d="M27.1407 10.0031V8.56875H21.422V2.85938H19.997V8.56875H15.7126V2.85938H14.2782V8.56875H9.99385V2.85938H8.56885V8.56875H2.8501V10.0031H27.1407Z" fill="black"/>
<path d="M2.8501 17.1469H7.13447V18.5719H2.8501V17.1469Z" fill="black"/>
<path d="M2.8501 12.8531H4.28447V14.2875H2.8501V12.8531Z" fill="black"/>
<path d="M1.42505 27.1406H2.85005V28.575H1.42505V27.1406Z" fill="black"/>
<path d="M1.42505 10.0031H2.85005V11.4281H1.42505V10.0031Z" fill="black"/>
</g>
<defs>
<clipPath id="clip0_91_141">
<rect width="30" height="30" fill="white"/>
</clipPath>
</defs>
</svg>
