<svg width="36" height="36" viewBox="0 0 36 36" fill="none" xmlns="http://www.w3.org/2000/svg">
<path d="M34.2788 6.86255H36.0001V29.1375H34.2788V6.86255Z" fill="black"/>
<path d="M32.5688 29.1375H34.2788V30.8588H32.5688V29.1375Z" fill="black"/>
<path d="M32.5688 5.1413H34.2788V6.86255H32.5688V5.1413Z" fill="black"/>
<path d="M30.8586 8.57251H32.5686V12.0038H30.8586V8.57251Z" fill="black"/>
<path d="M3.43115 30.8588H32.5687V32.5688H3.43115V30.8588Z" fill="black"/>
<path d="M29.1375 25.7175H30.8587V27.4275H29.1375V25.7175Z" fill="black"/>
<path d="M29.1375 12.0038H30.8587V13.7138H29.1375V12.0038Z" fill="black"/>
<path d="M27.4275 23.9963H29.1375V25.7175H27.4275V23.9963Z" fill="black"/>
<path d="M27.4275 13.7137H29.1375V15.4237H27.4275V13.7137Z" fill="black"/>
<path d="M25.7063 22.2863H27.4275V23.9963H25.7063V22.2863Z" fill="black"/>
<path d="M25.7063 15.4238H27.4275V17.145H25.7063V15.4238Z" fill="black"/>
<path d="M23.9963 20.5763H25.7063V22.2863H23.9963V20.5763Z" fill="black"/>
<path d="M23.9963 17.145H25.7063V18.855H23.9963V17.145Z" fill="black"/>
<path d="M20.5649 18.855H23.9962V20.5763H20.5649V18.855Z" fill="black"/>
<path d="M15.4238 20.5763H20.5651V22.2863H15.4238V20.5763Z" fill="black"/>
<path d="M11.9924 18.855H15.4237V20.5763H11.9924V18.855Z" fill="black"/>
<path d="M10.2825 20.5763H11.9925V22.2863H10.2825V20.5763Z" fill="black"/>
<path d="M10.2825 17.145H11.9925V18.855H10.2825V17.145Z" fill="black"/>
<path d="M8.57251 22.2863H10.2825V23.9963H8.57251V22.2863Z" fill="black"/>
<path d="M8.57251 15.4238H10.2825V17.145H8.57251V15.4238Z" fill="black"/>
<path d="M6.85132 23.9963H8.57257V25.7175H6.85132V23.9963Z" fill="black"/>
<path d="M6.85132 13.7137H8.57257V15.4237H6.85132V13.7137Z" fill="black"/>
<path d="M5.14136 25.7175H6.85136V27.4275H5.14136V25.7175Z" fill="black"/>
<path d="M5.14136 12.0038H6.85136V13.7138H5.14136V12.0038Z" fill="black"/>
<path d="M3.43115 3.43127H32.5687V5.14127H3.43115V3.43127Z" fill="black"/>
<path d="M3.43115 8.57251H5.14115V12.0038H3.43115V8.57251Z" fill="black"/>
<path d="M1.70996 29.1375H3.43121V30.8588H1.70996V29.1375Z" fill="black"/>
<path d="M1.70996 5.1413H3.43121V6.86255H1.70996V5.1413Z" fill="black"/>
<path d="M0 6.86255H1.71V29.1375H0V6.86255Z" fill="black"/>
</svg>
