<svg width="54" height="53" viewBox="0 0 54 53" fill="none" xmlns="http://www.w3.org/2000/svg">
<path d="M26.9999 0.333374C23.498 0.333374 20.0304 1.02313 16.795 2.36325C13.5597 3.70338 10.62 5.66763 8.14374 8.14386C3.14277 13.1448 0.333252 19.9276 0.333252 27C0.333252 38.7867 7.98659 48.7867 18.5733 52.3334C19.9066 52.5467 20.3333 51.72 20.3333 51V46.4934C12.9466 48.0934 11.3733 42.92 11.3733 42.92C10.1466 39.8267 8.41325 39 8.41325 39C5.98659 37.3467 8.59992 37.4 8.59992 37.4C11.2666 37.5867 12.6799 40.1467 12.6799 40.1467C14.9999 44.2 18.9199 43 20.4399 42.36C20.6799 40.6267 21.3733 39.4534 22.1199 38.7867C16.1999 38.12 9.98658 35.8267 9.98658 25.6667C9.98658 22.7067 10.9999 20.3334 12.7333 18.44C12.4666 17.7734 11.5333 15 12.9999 11.4C12.9999 11.4 15.2399 10.68 20.3333 14.12C22.4399 13.5334 24.7333 13.24 26.9999 13.24C29.2666 13.24 31.5599 13.5334 33.6666 14.12C38.7599 10.68 40.9999 11.4 40.9999 11.4C42.4666 15 41.5333 17.7734 41.2666 18.44C42.9999 20.3334 44.0132 22.7067 44.0132 25.6667C44.0132 35.8534 37.7733 38.0934 31.8266 38.76C32.7866 39.5867 33.6666 41.2134 33.6666 43.6934V51C33.6666 51.72 34.0933 52.5734 35.4533 52.3334C46.0399 48.76 53.6666 38.7867 53.6666 27C53.6666 23.4981 52.9768 20.0305 51.6367 16.7951C50.2966 13.5598 48.3323 10.6201 45.8561 8.14386C43.3799 5.66763 40.4402 3.70338 37.2048 2.36325C33.9695 1.02313 30.5018 0.333374 26.9999 0.333374Z" fill="black"/>
</svg>
