<svg width="50" height="50" viewBox="0 0 50 50" fill="none" xmlns="http://www.w3.org/2000/svg">
<g clip-path="url(#clip0_135_392)">
<path d="M38.2812 0H11.7188C5.24666 0 0 5.24666 0 11.7188V38.2812C0 44.7533 5.24666 50 11.7188 50H38.2812C44.7533 50 50 44.7533 50 38.2812V11.7188C50 5.24666 44.7533 0 38.2812 0Z" fill="#F4F2ED"/>
<path d="M8.13203 39.6561H14.3465V24.5637L5.46875 17.9055V36.9928C5.46875 38.4665 6.66289 39.6561 8.13203 39.6561Z" fill="#4285F4"/>
<path d="M35.6533 39.6561H41.868C43.3416 39.6561 44.5312 38.4619 44.5312 36.9928V17.9053L35.6533 24.5637" fill="#34A853"/>
<path d="M35.6533 13.0224V24.5636L44.5312 17.9054V14.3538C44.5312 11.0603 40.7715 9.18252 38.1393 11.1579" fill="#FBBC04"/>
<path d="M14.3467 24.5636V13.0226L25 21.0123L35.6533 13.0222V24.5634L25 32.5537" fill="#EA4335"/>
<path d="M5.46875 14.3541V17.9052L14.3465 24.5636V13.0226L11.8607 11.1582C9.22402 9.18277 5.46875 11.0605 5.46875 14.3541Z" fill="#C5221F"/>
</g>
<defs>
<clipPath id="clip0_135_392">
<rect width="50" height="50" fill="white"/>
</clipPath>
</defs>
</svg>
