<svg xmlns="http://www.w3.org/2000/svg" viewBox="0 0 15 15" height="15" width="15" id="Map-Navigation-Pin-Location-1--Streamline-Pixel.svg"><desc>Map Navigation Pin Location 1 Streamline Icon: https://streamlinehq.com</desc><title>map-navigation-pin-location-1</title><g><path d="M12.142968750000001 3.5671875h0.7125v3.571875h-0.7125Z" fill="#5c005c" stroke-width="1"></path><path d="M11.430468750000001 7.1390625000000005h0.7125v2.1421875000000004h-0.7125Z" fill="#5c005c" stroke-width="1"></path><path d="M11.430468750000001 2.1421875000000004h0.7125v1.425h-0.7125Z" fill="#5c005c" stroke-width="1"></path><path d="M10.71328125 9.28125h0.7171875v1.4296875h-0.7171875Z" fill="#5c005c" stroke-width="1"></path><path d="M10.71328125 1.425h0.7171875v0.7171875h-0.7171875Z" fill="#5c005c" stroke-width="1"></path><path d="M10.000781250000001 10.7109375h0.7125v1.4296875h-0.7125Z" fill="#5c005c" stroke-width="1"></path><path d="m10.000781250000001 5.7140625 -0.7125 0 0 -1.4296875 -0.7171875 0 0 -0.7171875 -0.7125 0 0 -0.7125 0.7125 0 0 -0.7125 -2.1421875000000004 0 0 0.7125 -0.7125 0 0 0.7125 -0.7171875 0 0 0.7171875 -0.7125 0 0 2.1421875000000004 0.7125 0 0 0.7125 0.7171875 0 0 0.7171875 0.7125 0 0 0.7125 2.1421875000000004 0 0 -0.7125 0.7171875 0 0 -0.7171875 0.7125 0 0 -0.7125 0.7125 0 0 -2.1421875000000004 -0.7125 0 0 1.4296875z" fill="#5c005c" stroke-width="1"></path><path d="M9.28828125 12.140625h0.7125v0.7125h-0.7125Z" fill="#5c005c" stroke-width="1"></path><path d="M9.28828125 3.5671875h0.7125v0.7171875h-0.7125Z" fill="#5c005c" stroke-width="1"></path><path d="M9.28828125 0.7125h1.425v0.7125h-1.425Z" fill="#5c005c" stroke-width="1"></path><path d="M8.57109375 12.853125h0.7171875v0.7171875h-0.7171875Z" fill="#5c005c" stroke-width="1"></path><path d="M8.57109375 2.8546875h0.7171875v0.7125h-0.7171875Z" fill="#5c005c" stroke-width="1"></path><path d="M7.858593750000001 13.5703125h0.7125v0.7125h-0.7125Z" fill="#5c005c" stroke-width="1"></path><path d="M7.141406249999999 14.282812499999999h0.7171875V15h-0.7171875Z" fill="#5c005c" stroke-width="1"></path><path d="M6.42890625 13.5703125h0.7125v0.7125h-0.7125Z" fill="#5c005c" stroke-width="1"></path><path d="M5.71640625 0h3.571875v0.7125h-3.571875Z" fill="#5c005c" stroke-width="1"></path><path d="M5.71640625 12.853125h0.7125v0.7171875h-0.7125Z" fill="#5c005c" stroke-width="1"></path><path d="M4.99921875 12.140625h0.7171875v0.7125h-0.7171875Z" fill="#5c005c" stroke-width="1"></path><path d="M4.2867187499999995 0.7125h1.4296875v0.7125h-1.4296875Z" fill="#5c005c" stroke-width="1"></path><path d="M4.2867187499999995 10.7109375h0.7125v1.4296875h-0.7125Z" fill="#5c005c" stroke-width="1"></path><path d="M3.5695312500000003 9.28125h0.7171875v1.4296875h-0.7171875Z" fill="#5c005c" stroke-width="1"></path><path d="M3.5695312500000003 1.425h0.7171875v0.7171875h-0.7171875Z" fill="#5c005c" stroke-width="1"></path><path d="M2.85703125 7.1390625000000005h0.7125v2.1421875000000004h-0.7125Z" fill="#5c005c" stroke-width="1"></path><path d="M2.85703125 2.1421875000000004h0.7125v1.425h-0.7125Z" fill="#5c005c" stroke-width="1"></path><path d="M2.14453125 3.5671875h0.7125v3.571875h-0.7125Z" fill="#5c005c" stroke-width="1"></path></g></svg>