<svg width="50" height="50" viewBox="0 0 50 50" fill="none" xmlns="http://www.w3.org/2000/svg">
<g clip-path="url(#clip0_135_400)">
<mask id="mask0_135_400" style="mask-type:luminance" maskUnits="userSpaceOnUse" x="0" y="0" width="50" height="50">
<path d="M0 0H50V50H0V0Z" fill="white"/>
</mask>
<g mask="url(#mask0_135_400)">
<path d="M38.2812 0H11.7188C5.24668 0 0 5.24668 0 11.7188V38.2812C0 44.7533 5.24668 50 11.7188 50H38.2812C44.7533 50 50 44.7533 50 38.2812V11.7188C50 5.24668 44.7533 0 38.2812 0Z" fill="#F4F2ED"/>
<mask id="mask1_135_400" style="mask-type:luminance" maskUnits="userSpaceOnUse" x="7" y="7" width="35" height="35">
<path d="M7.8125 7.8125H41.9922V41.9922H7.8125V7.8125Z" fill="white"/>
</mask>
<g mask="url(#mask1_135_400)">
<path d="M9.86914 9.28653L28.7816 7.88966C31.1049 7.69044 31.7018 7.82462 33.1625 8.88673L39.1996 13.1397C40.1953 13.8711 40.527 14.0703 40.527 14.8668V38.192C40.527 39.6539 39.9961 40.5186 38.1377 40.6506L16.1752 41.9809C14.7807 42.0467 14.1166 41.8475 13.3861 40.9168L8.94043 35.1356C8.14297 34.0717 7.8125 33.2752 7.8125 32.3441V11.6108C7.8125 10.4154 8.34336 9.41876 9.86914 9.28653Z" fill="white"/>
<path fill-rule="evenodd" clip-rule="evenodd" d="M28.7816 7.89L9.86914 9.28687C8.34336 9.41871 7.8125 10.4158 7.8125 11.6107V32.3441C7.8125 33.2748 8.14297 34.0713 8.94043 35.1355L13.3861 40.9164C14.1166 41.847 14.7807 42.0466 16.1752 41.9804L38.1381 40.6507C39.9951 40.5185 40.5271 39.6539 40.5271 38.1923V14.867C40.5271 14.1117 40.2289 13.8939 39.3504 13.2494L33.1625 8.88648C31.702 7.82437 31.1049 7.69019 28.7816 7.88941V7.89ZM16.6719 14.4851C14.8785 14.6058 14.4717 14.6332 13.4531 13.805L10.8637 11.7453C10.6006 11.4789 10.7328 11.1462 11.3959 11.0798L29.5771 9.75133C31.1039 9.61812 31.899 10.1502 32.4961 10.615L35.6143 12.8744C35.7475 12.9416 36.0791 13.3392 35.6803 13.3392L16.9043 14.4695L16.6719 14.4851ZM14.5811 37.9929V18.1916C14.5811 17.3269 14.8467 16.9279 15.6416 16.8611L37.207 15.5984C37.9385 15.5326 38.2689 15.9974 38.2689 16.8607V36.53C38.2689 37.3949 38.1357 38.1263 36.9418 38.1923L16.3051 39.3886C15.1113 39.4545 14.5814 39.057 14.5814 37.9929H14.5811ZM34.9521 19.2533C35.0846 19.8515 34.9521 20.4496 34.3541 20.5179L33.3594 20.7152V35.3349C32.4957 35.7998 31.7006 36.0652 31.0363 36.0652C29.9742 36.0652 29.709 35.7326 28.9137 34.7367L22.4094 24.5033V34.4041L24.467 34.8701C24.467 34.8701 24.467 36.0664 22.8068 36.0664L18.2301 36.3318C18.0969 36.0652 18.2301 35.4011 18.6939 35.2689L19.8893 34.9373V21.8464L18.2305 21.7123C18.0971 21.114 18.4287 20.2504 19.3584 20.1834L24.2689 19.8529L31.0365 30.2185V21.048L29.3115 20.8498C29.1783 20.1173 29.709 19.5851 30.3721 19.5203L34.9521 19.2533Z" fill="black"/>
</g>
</g>
</g>
<defs>
<clipPath id="clip0_135_400">
<rect width="50" height="50" fill="white"/>
</clipPath>
</defs>
</svg>
