<svg width="33" height="33" viewBox="0 0 33 33" fill="none" xmlns="http://www.w3.org/2000/svg">
<g clip-path="url(#clip0_91_164)">
<path d="M31.4221 12.5709H29.8546V15.7162H28.2871V17.2837H29.8546V20.429H31.4221V17.2837H32.9999V15.7162H31.4221V12.5709Z" fill="black"/>
<path d="M28.2871 20.4291H29.8546V23.5744H28.2871V20.4291Z" fill="black"/>
<path d="M28.2871 9.4256H29.8546V12.5709H28.2871V9.4256Z" fill="black"/>
<path d="M26.7095 23.5744H28.2873V26.7094H26.7095V23.5744Z" fill="black"/>
<path d="M26.7095 6.28033H28.2873V9.42565H26.7095V6.28033Z" fill="black"/>
<path d="M25.1418 25.1418H23.564V28.2872H26.7093V26.7093H25.1418V25.1418Z" fill="black"/>
<path d="M23.564 4.71283H26.7093V6.28033H23.564V4.71283Z" fill="black"/>
<path d="M20.429 28.2872H23.564V29.8547H20.429V28.2872Z" fill="black"/>
<path d="M20.429 23.5744H23.564V25.1419H20.429V23.5744Z" fill="black"/>
<path d="M20.429 20.4291H21.9965V21.9966H20.429V20.4291Z" fill="black"/>
<path d="M20.429 3.14532H23.564V4.71282H20.429V3.14532Z" fill="black"/>
<path d="M18.8513 14.1384H20.4291V17.2837H18.8513V14.1384Z" fill="black"/>
<path d="M17.2839 28.2872H15.706V29.8547H12.571V31.4325H15.706V33H17.2839V31.4325H20.4292V29.8547H17.2839V28.2872Z" fill="black"/>
<path d="M12.571 21.9966H20.4292V23.5744H12.571V21.9966Z" fill="black"/>
<path d="M14.1384 18.8513H18.8512V20.4291H14.1384V18.8513Z" fill="black"/>
<path d="M15.706 4.71281H17.2839V3.14531H20.4292V1.5675H17.2839V0H15.706V1.5675H12.571V3.14531H15.706V4.71281Z" fill="black"/>
<path d="M12.571 14.1384H14.1385V17.2837H12.571V14.1384Z" fill="black"/>
<path d="M9.42554 28.2872H12.5708V29.8547H9.42554V28.2872Z" fill="black"/>
<path d="M9.42554 23.5744H12.5708V25.1419H9.42554V23.5744Z" fill="black"/>
<path d="M10.9932 20.4291H12.571V21.9966H10.9932V20.4291Z" fill="black"/>
<path d="M9.42554 3.14532H12.5708V4.71282H9.42554V3.14532Z" fill="black"/>
<path d="M10.993 12.571H12.5708V11.0035H20.429V12.571H21.9965V20.4291H23.564V9.42565H21.9965V7.85815H20.429V6.28033H12.5708V7.85815H10.993V9.42565H9.42554V20.4291H10.993V12.571Z" fill="black"/>
<path d="M7.85809 25.1418V26.7093H6.28027V28.2872H9.42559V25.1418H7.85809Z" fill="black"/>
<path d="M6.28027 4.71283H9.42559V6.28033H6.28027V4.71283Z" fill="black"/>
<path d="M4.71289 23.5744H6.28039V26.7094H4.71289V23.5744Z" fill="black"/>
<path d="M4.71289 6.28033H6.28039V9.42565H4.71289V6.28033Z" fill="black"/>
<path d="M3.13501 20.4291H4.71282V23.5744H3.13501V20.4291Z" fill="black"/>
<path d="M3.13501 9.4256H4.71282V12.5709H3.13501V9.4256Z" fill="black"/>
<path d="M4.71281 17.2837V15.7162H3.135V12.5709H1.5675V15.7162H0V17.2837H1.5675V20.429H3.135V17.2837H4.71281Z" fill="black"/>
</g>
<defs>
<clipPath id="clip0_91_164">
<rect width="33" height="33" fill="white"/>
</clipPath>
</defs>
</svg>
