<svg width="105" height="105" viewBox="0 0 105 105" fill="none" xmlns="http://www.w3.org/2000/svg">
<path d="M13.125 0C5.85375 0 0 5.85375 0 13.125V91.875C0 99.1462 5.85375 105 13.125 105H91.875C99.1462 105 105 99.1462 105 91.875V13.125C105 5.85375 99.1462 0 91.875 0H13.125ZM43.2381 27.3438C45.9944 27.3438 47.635 28.6563 48.16 31.2813L54.5606 67.6069C56.595 64.9163 58.2619 62.65 59.5744 60.8125C61.7489 57.6784 63.6279 54.3493 65.1875 50.8681C66.9594 47.1275 67.8475 43.7806 67.8475 40.8275C67.8475 39.0556 67.3531 37.6469 66.3688 36.5969C65.45 35.4812 63.7088 34.0725 61.1494 32.3662C63.7744 29.0194 67.0556 27.3438 70.9931 27.3438C73.0931 27.3438 74.8344 27.9694 76.2125 29.2162C77.6563 30.4631 78.3737 32.2963 78.3737 34.7288C78.3737 38.7975 76.6675 43.8856 73.255 49.9887C69.9081 56.0262 63.4506 65.1131 53.8694 77.2538L44.1263 77.9362L36.6406 35.8137H26.7969V31.675C29.4219 30.8219 32.5062 29.8988 36.05 28.9188C39.5937 27.8688 41.9913 27.3438 43.2381 27.3438Z" fill="#20C997"/>
</svg>
