<svg width="52" height="52" viewBox="0 0 52 52" fill="none" xmlns="http://www.w3.org/2000/svg">
<path d="M37.2634 31.1666C37.4701 29.4616 37.6251 27.7566 37.6251 26C37.6251 24.2433 37.4701 22.5383 37.2634 20.8333H45.9951C46.4084 22.4866 46.6667 24.2175 46.6667 26C46.6667 27.7825 46.4084 29.5133 45.9951 31.1666M32.6909 45.53C34.2409 42.6625 35.4292 39.5625 36.2559 36.3333H43.8767C41.3739 40.643 37.4032 43.9076 32.6909 45.53ZM32.0451 31.1666H19.9551C19.6967 29.4616 19.5417 27.7566 19.5417 26C19.5417 24.2433 19.6967 22.5125 19.9551 20.8333H32.0451C32.2776 22.5125 32.4584 24.2433 32.4584 26C32.4584 27.7566 32.2776 29.4616 32.0451 31.1666ZM26.0001 46.5633C23.8559 43.4633 22.1251 40.0275 21.0659 36.3333H30.9342C29.8751 40.0275 28.1442 43.4633 26.0001 46.5633ZM15.6667 15.6666H8.12341C10.6005 11.3453 14.5683 8.07547 19.2834 6.46996C17.7334 9.33746 16.5709 12.4375 15.6667 15.6666ZM8.12341 36.3333H15.6667C16.5709 39.5625 17.7334 42.6625 19.2834 45.53C14.5782 43.9068 10.6159 40.6416 8.12341 36.3333ZM6.00508 31.1666C5.59175 29.5133 5.33341 27.7825 5.33341 26C5.33341 24.2175 5.59175 22.4866 6.00508 20.8333H14.7367C14.5301 22.5383 14.3751 24.2433 14.3751 26C14.3751 27.7566 14.5301 29.4616 14.7367 31.1666M26.0001 5.41079C28.1442 8.51079 29.8751 11.9725 30.9342 15.6666H21.0659C22.1251 11.9725 23.8559 8.51079 26.0001 5.41079ZM43.8767 15.6666H36.2559C35.4474 12.4671 34.2501 9.37852 32.6909 6.46996C37.4442 8.09746 41.3967 11.3783 43.8767 15.6666ZM26.0001 0.166626C11.7142 0.166626 0.166748 11.7916 0.166748 26C0.166748 32.8514 2.88847 39.4222 7.73316 44.2669C10.132 46.6657 12.9798 48.5686 16.1141 49.8668C19.2483 51.1651 22.6076 51.8333 26.0001 51.8333C32.8515 51.8333 39.4223 49.1116 44.267 44.2669C49.1117 39.4222 51.8334 32.8514 51.8334 26C51.8334 22.6075 51.1652 19.2482 49.867 16.114C48.5687 12.9797 46.6659 10.1319 44.267 7.73303C41.8682 5.33419 39.0203 3.43132 35.8861 2.13307C32.7518 0.834825 29.3926 0.166626 26.0001 0.166626Z" fill="black"/>
</svg>
